<?xml version="1.0" encoding="UTF-8"?>
<!-- Created with EazyDraw for Mac ( http://www.eazydraw.com/ ) -->

<svg
    version="1.1"
    xmlns:dc="http://purl.org/dc/elements/1.1/"
    xmlns:cc="http://creativecommons.org/ns#"
    xmlns:rdf="http://www.w3.org/1999/02/22-rdf-syntax-ns#"
    xmlns:svg="http://www.w3.org/2000/svg"
    xmlns:xlink="http://www.w3.org/1999/xlink"
    xmlns="http://www.w3.org/2000/svg"
    width="16.6626829013"
    height="10.2265723888"
    viewBox="0, 0, 16.6626829013, 10.2265723888"
    preserveAspectRatio="none"
    id="svg2">
   <defs
       id="defs_DE25792B"/>
   <metadata
       id="metadata7">
      <rdf:RDF>
         <cc:Work
             rdf:about="">
            <dc:format>image/svg+xml</dc:format>
            <dc:type rdf:resource="http://purl.org/dc/dcmitype/StillImage"/>
            <dc:title></dc:title>
         </cc:Work>
      </rdf:RDF>
   </metadata>
   <g
       id="layer_Paper"
       transform="translate(4, 2)"
       style="fill:#000000;fill-opacity:1;stroke:#000000;stroke-opacity:1;fill-rule:nonzero;stroke-linecap:square;stroke-linejoin:miter;stroke-width:1;stroke-miterlimit:10">
      <path
          style="fill:#8A8D8F;stroke:none"
          id="3690BDDA"
          d="M0,0.010711027931 L5.347181931189,0.014802631578 L5.347181931189,1.148660899295 L16.6626829013,2.472797307672 L16.5510235446,9.388398857035 C16.6152265978,9.620494511155 16.4908789085,9.857145028328 16.2172946662,10.0235687528
C15.9437104239,10.1899923934 15.5546821624,10.2656271417 15.1731357445,10.2265723888 L1.394285351478,10.2265723888 C1.020248385498,10.2453219603 0.651581229836,10.1630559364 0.38621045061,10.0016229378
C0.120825867237,9.840189939173 -0.014413288198,9.615928317143 0.016411355478,9.388398857007 L0.092600965299,3.479530164541 L0,0.010711027931 z M1.383062586016,3.522047131241 L1.383062586014,4.361374738478
L5.524304459021,4.361374738485 L5.524304459023,3.522047131248 L1.383062586016,3.522047131241 z M6.904718416696,5.200702345725 L6.904718416695,6.040029952949 L9.665546332026,6.040029952954 L9.665546332027,5.20070234573
L6.904718416696,5.200702345725 z M1.383062586013,5.200702345716 L1.383062586011,6.04002995294 L5.524304459018,6.040029952947 L5.52430445902,5.200702345723 L1.383062586013,5.200702345716 z M6.904718416693,6.879357560187
L6.904718416692,7.718685167424 L9.665546332023,7.718685167429 L9.665546332024,6.879357560191 L6.904718416693,6.879357560187 z M1.38306258601,6.879357560178 L1.383062586009,7.718685167415 L5.524304459016,7.718685167422
L5.524304459017,6.879357560184 L1.38306258601,6.879357560178 z M11.0459602897,6.879357560194 L11.0459602897,7.718685167431 L15.1872021627,7.718685167438 L15.1872021627,6.879357560201 L11.0459602897,6.879357560194
z M6.904718416691,8.558012774648 L6.904718416689,9.397340381886 L9.66554633202,9.397340381891 L9.665546332021,8.558012774653 L6.904718416691,8.558012774648 z M1.383062586007,8.558012774639 L1.383062586006,9.397340381877
L5.524304459013,9.397340381884 L5.524304459014,8.558012774646 L1.383062586007,8.558012774639 z M11.0454120441,8.555695135148 L11.0459602897,9.397340381893 L15.1872021627,9.3973403819 L15.1872021627,8.558012774662
L11.0454120441,8.555695135148 z"/>
      <path
          style="fill:#8A8D8F;stroke:none"
          id="821ECC1B"
          d="M0,0.010711027931 L5.364360293763,0.140533625731 L5.347181931189,1.148660899295 L15.0771565855,0.985955202409 L16.5510235446,9.388398857035 C16.6152265978,9.620494511155 16.4908789085,9.857145028328 16.2172946662,10.0235687528
C15.9437104239,10.1899923934 15.5546821624,10.2656271417 15.1731357445,10.2265723888 L1.394285351478,10.2265723888 C1.020248385498,10.2453219603 0.651581229836,10.1630559364 0.38621045061,10.0016229378
C0.120825867237,9.840189939173 -0.014413288198,9.615928317143 0.016411355478,9.388398857007 L0.092600965299,3.479530164541 L0,0.010711027931 z M1.383062586016,3.522047131241 L1.383062586014,4.361374738478
L5.524304459021,4.361374738485 L5.524304459023,3.522047131248 L1.383062586016,3.522047131241 z M6.904718416696,5.200702345725 L6.904718416695,6.040029952949 L9.665546332026,6.040029952954 L9.665546332027,5.20070234573
L6.904718416696,5.200702345725 z M1.383062586013,5.200702345716 L1.383062586011,6.04002995294 L5.524304459018,6.040029952947 L5.52430445902,5.200702345723 L1.383062586013,5.200702345716 z M6.904718416693,6.879357560187
L6.904718416692,7.718685167424 L9.665546332023,7.718685167429 L9.665546332024,6.879357560191 L6.904718416693,6.879357560187 z M1.38306258601,6.879357560178 L1.383062586009,7.718685167415 L5.524304459016,7.718685167422
L5.524304459017,6.879357560184 L1.38306258601,6.879357560178 z M11.0459602897,6.879357560194 L11.0459602897,7.718685167431 L15.1872021627,7.718685167438 L15.1872021627,6.879357560201 L11.0459602897,6.879357560194
z M6.904718416691,8.558012774648 L6.904718416689,9.397340381886 L9.66554633202,9.397340381891 L9.665546332021,8.558012774653 L6.904718416691,8.558012774648 z M1.383062586007,8.558012774639 L1.383062586006,9.397340381877
L5.524304459013,9.397340381884 L5.524304459014,8.558012774646 L1.383062586007,8.558012774639 z M11.0454120441,8.555695135148 L11.0459602897,9.397340381893 L15.1872021627,9.3973403819 L15.1872021627,8.558012774662
L11.0454120441,8.555695135148 z"/>
      <path
          style="fill:#8A8D8F;stroke:none"
          id="B680230B"
          d="M0,0.010711027931 L5.347181931189,0.014802631579 L5.347181931189,1.148660899295 L14.898976761,2.271956664396 L16.5510235446,9.388398857035 C16.6152265978,9.620494511155 16.4908789085,9.857145028328 16.2172946662,10.0235687528
C15.9437104239,10.1899923934 15.5546821624,10.2656271417 15.1731357445,10.2265723888 L1.394285351478,10.2265723888 C1.020248385498,10.2453219603 0.651581229836,10.1630559364 0.38621045061,10.0016229378
C0.120825867237,9.840189939173 -0.014413288198,9.615928317143 0.016411355478,9.388398857007 L0.092600965299,3.479530164541 L0,0.010711027931 z M1.383062586016,3.522047131241 L1.383062586014,4.361374738478
L5.524304459021,4.361374738485 L5.524304459023,3.522047131248 L1.383062586016,3.522047131241 z M6.904718416696,5.200702345725 L6.904718416695,6.040029952949 L9.665546332026,6.040029952954 L9.665546332027,5.20070234573
L6.904718416696,5.200702345725 z M1.383062586013,5.200702345716 L1.383062586011,6.04002995294 L5.524304459018,6.040029952947 L5.52430445902,5.200702345723 L1.383062586013,5.200702345716 z M6.904718416693,6.879357560187
L6.904718416692,7.718685167424 L9.665546332023,7.718685167429 L9.665546332024,6.879357560191 L6.904718416693,6.879357560187 z M1.38306258601,6.879357560178 L1.383062586009,7.718685167415 L5.524304459016,7.718685167422
L5.524304459017,6.879357560184 L1.38306258601,6.879357560178 z M11.0459602897,6.879357560194 L11.0459602897,7.718685167431 L15.1872021627,7.718685167438 L15.1872021627,6.879357560201 L11.0459602897,6.879357560194
z M6.904718416691,8.558012774648 L6.904718416689,9.397340381886 L9.66554633202,9.397340381891 L9.665546332021,8.558012774653 L6.904718416691,8.558012774648 z M1.383062586007,8.558012774639 L1.383062586006,9.397340381877
L5.524304459013,9.397340381884 L5.524304459014,8.558012774646 L1.383062586007,8.558012774639 z M11.0454120441,8.555695135148 L11.0459602897,9.397340381893 L15.1872021627,9.3973403819 L15.1872021627,8.558012774662
L11.0454120441,8.555695135148 z"/>
      <path
          style="fill:#8A8D8F;stroke:none"
          id="E40F642B"
          d="M0,0.010711027931 L5.14213807154,0 L5.347181931189,1.148660899295 L14.898976761,2.271956664396 L16.5510235446,9.388398857035 C16.6152265978,9.620494511155 16.4908789085,9.857145028328 16.2172946662,10.0235687528
C15.9437104239,10.1899923934 15.5546821624,10.2656271417 15.1731357445,10.2265723888 L1.394285351478,10.2265723888 C1.020248385498,10.2453219603 0.651581229836,10.1630559364 0.38621045061,10.0016229378
C0.120825867237,9.840189939173 -0.014413288198,9.615928317143 0.016411355478,9.388398857007 L0.092600965299,3.479530164541 L0,0.010711027931 z M1.383062586016,3.522047131241 L1.383062586014,4.361374738478
L5.524304459021,4.361374738485 L5.524304459023,3.522047131248 L1.383062586016,3.522047131241 z M6.904718416696,5.200702345725 L6.904718416695,6.040029952949 L9.665546332026,6.040029952954 L9.665546332027,5.20070234573
L6.904718416696,5.200702345725 z M1.383062586013,5.200702345716 L1.383062586011,6.04002995294 L5.524304459018,6.040029952947 L5.52430445902,5.200702345723 L1.383062586013,5.200702345716 z M6.904718416693,6.879357560187
L6.904718416692,7.718685167424 L9.665546332023,7.718685167429 L9.665546332024,6.879357560191 L6.904718416693,6.879357560187 z M1.38306258601,6.879357560178 L1.383062586009,7.718685167415 L5.524304459016,7.718685167422
L5.524304459017,6.879357560184 L1.38306258601,6.879357560178 z M11.0459602897,6.879357560194 L11.0459602897,7.718685167431 L15.1872021627,7.718685167438 L15.1872021627,6.879357560201 L11.0459602897,6.879357560194
z M6.904718416691,8.558012774648 L6.904718416689,9.397340381886 L9.66554633202,9.397340381891 L9.665546332021,8.558012774653 L6.904718416691,8.558012774648 z M1.383062586007,8.558012774639 L1.383062586006,9.397340381877
L5.524304459013,9.397340381884 L5.524304459014,8.558012774646 L1.383062586007,8.558012774639 z M11.0454120441,8.555695135148 L11.0459602897,9.397340381893 L15.1872021627,9.3973403819 L15.1872021627,8.558012774662
L11.0454120441,8.555695135148 z"/>
      <path
          style="fill:#0F70FA;stroke:#8A8D8F"
          id="A605A71B"
          d="M15.2028491606,2.463495114977 C15.487494292,2.627024596471 15.7721394234,2.790554077965 16.0567845548,2.954083559459 C16.3277290711,2.482468063885 16.1650531006,1.880504237077 15.6934376051,1.609559720746
C15.3913314478,1.435998827518 15.020004012,1.434980727642 14.7169506707,1.606882403826 C14.878916834,1.89241997421 15.0408829973,2.177957544593 15.2028491606,2.463495114977 z"/>
   </g>
</svg>
